# AST/ASF file generated using VICON BodyLanguage
# -----------------------------------------------
:version 1.10
:name VICON
:units
  mass 1.0
  length 0.45
  angle deg
:documentation
   .ast/.asf automatically generated from VICON data using
   VICON BodyBuilder and BodyLanguage model FoxedUp or BRILLIANT.MOD
:root
   order TX TY TZ RX RY RZ
   axis XYZ
   position 0 0 0  
   orientation 0 0 0 
:bonedata
  begin
     id 1 
     name lhipjoint
     direction 0.541323 -0.757556 0.364798 
     length 2.47576 
     axis 0 0 0  XYZ
  end
  begin
     id 2 
     name lfemur
     direction 0.34202 -0.939693 0  
     length 7.46493  
     axis 0 0 20  XYZ
    dof rx ry rz
    limits (-160.0 20.0)
           (-70.0 70.0)
           (-60.0 70.0)
  end
  begin
     id 3 
     name ltibia
     direction 0.34202 -0.939693 0   
     length 7.73805   
     axis 0 0 20   XYZ
    dof rx
    limits (-10.0 170.0)
  end
  begin
     id 4 
     name lfoot
     direction 0.107174 -0.294458 0.949636   
     length 2.25864   
     axis -90 7.62852e-016 20   XYZ
    dof rx rz
    limits (-45.0 90.0)
           (-70.0 20.0)
  end
  begin
     id 5 
     name ltoes
     direction 1.53606e-011 -4.21934e-011 1   
     length 1.12451   
     axis -90 7.62852e-016 20   XYZ
    dof rx
    limits (-90.0 20.0)
  end
  begin
     id 6 
     name rhipjoint
     direction -0.524745 -0.766967 0.36933   
     length 2.44538  
     axis 0 0 0  XYZ 
  end
  begin
     id 7 
     name rfemur
     direction -0.34202 -0.939693 0   
     length 7.61604   
     axis 0 0 -20   XYZ
    dof rx ry rz
    limits (-160.0 20.0)
           (-70.0 70.0)
           (-70.0 60.0)
  end
  begin
     id 8 
     name rtibia
     direction -0.34202 -0.939693 0   
     length 7.61056   
     axis 0 0 -20   XYZ
    dof rx
    limits (-10.0 170.0)
 end
 begin
     id 9 
     name rfoot
     direction -0.12616 -0.346623 0.929482   
     length 2.46372  
     axis -90 -7.62852e-016 -20   XYZ
    dof rx rz
    limits (-45.0 90.0)
           (-20.0 70.0)
  end
  begin
     id 10 
     name rtoes
     direction -1.53531e-011 -4.22004e-011 1   
     length 1.21611   
     axis -90 -7.62852e-016 -20   XYZ
    dof rx
    limits (-90.0 20.0)
  end
  begin
     id 11 
     name lowerback
     direction -0.000778023 0.997293 -0.0735223   
     length 2.06139   
     axis 0 0 0   XYZ
    dof rx ry rz
    limits (-20.0 45.0)
           (-30.0 30.0)
           (-30.0 30.0)
  end
  begin
     id 12 
     name upperback
     direction 0.0222598 0.999722 -0.0078355   
     length 2.06383   
     axis 0 0 0   XYZ
    dof rx ry rz
    limits (-20.0 45.0)
           (-30.0 30.0)
           (-30.0 30.0)
  end
  begin
     id 13 
     name thorax
     direction 0.0219654 0.999405 0.0265994   
     length 2.07163   
     axis 0 0 0   XYZ
    dof rx ry rz
    limits (-20.0 45.0)
           (-30.0 30.0)
           (-30.0 30.0)
  end
  begin
     id 14 
     name lowerneck
     direction 0.0213282 0.988147 0.15202   
     length 1.75969   
     axis 0 0 0   XYZ
    dof rx ry rz
    limits (-20.0 45.0)
           (-30.0 30.0)
           (-30.0 30.0)
  end
  begin
     id 15 
     name upperneck
     direction -0.0546456 0.982624 -0.177379   
     length 1.79244   
     axis 0 0 0   XYZ
    dof rx ry rz
    limits (-20.0 45.0)
           (-30.0 30.0)
           (-30.0 30.0)
  end
  begin
     id 16
     name head
     direction -0.0199987 0.996855 -0.076686  
     length 1.80555  
     axis 0 0 0   XYZ
    dof rx ry rz
    limits (-20.0 45.0)
           (-30.0 30.0)
           (-30.0 30.0)
  end
  begin
     id 17 
     name lclavicle
     direction 0.929565 0.363219 -0.063096  
     length 3.55722  
     axis 0 0 0   XYZ
    dof ry rz
    limits (-20.0 10.0)
           (0.0 20.0)
  end
  begin
     id 18 
     name lhumerus
     direction 1 -4.48993e-011 -2.36203e-027   
     length 4.92785   
     axis 180 -30 -90   XYZ
    dof rx ry rz
    limits (-60.0 90.0)
           (-90.0 90.0)
           (-90.0 90.0)
  end
  begin
     id 19
     name lradius
     direction 1 -4.48947e-011 2.02997e-027   
     length 3.44052   
     axis 180 -30 -90   XYZ
    dof rx
    limits (-10.0 170.0)
  end
  begin
     id 20
     name lwrist
     direction 1 -4.48962e-011 1.45991e-027   
     length 1.72026   
     axis 1.49639e-024 90 90   XYZ
    dof ry
    limits (-180.0 0.0)
 end
  begin
     id 21 
     name lhand
     direction 1 -4.48984e-011 2.91906e-027   
     length 0.654326   
     axis -1.863e-015 90 90   XYZ
    dof rx rz
    limits (-90.0 90.0)
           (-45.0 45.0)
  end
  begin
     id 22 
     name lfingers
     direction 1 -4.48961e-011 5.83968e-027   
     length 0.527534   
     axis -3.72598e-015 90 90   XYZ
    dof rx
    limits (0.0 90.0)
  end
  begin
     id 23
     name lthumb
     direction 0.707107 -6.34963e-011 0.707107   
     length 0.757437   
     axis -90 45 -6.68868e-015   XYZ
    dof rx rz
    limits (-45.0 45.0)
           (-45.0 45.0)
  end
  begin
     id 24 
     name rclavicle
     direction -0.902944 0.422599 -0.0781198   
     length 3.54432  
     axis 0 0 0   XYZ 
    dof ry rz
    limits (-10.0 20.0)
           (-20.0 0.0)
  end
  begin
     id 25 
     name rhumerus
     direction -1 -4.48953e-011 -4.75835e-028  
     length 5.09181   
     axis 180 30 90   XYZ
    dof rx ry rz
    limits (-90.0 60.0)
           (-90.0 90.0)
           (-90.0 90.0)
  end
  begin
     id 26 
     name rradius
     direction -1 -4.48986e-011 -3.25889e-027   
     length 3.49865   
     axis 180 30 90   XYZ
    dof rx
    limits (-10.0 170.0)
  end
  begin
     id 27 
     name rwrist
     direction -1 -4.48963e-011 1.45989e-027   
     length 1.74933   
     axis 1.49639e-024 -90 -90   XYZ
    dof ry
    limits (-180.0 0.0)
  end
  begin
     id 28
     name rhand
     direction -1 -4.49003e-011 2.91844e-027   
     length 0.66641   
     axis -1.863e-015 -90 -90   XYZ
    dof rx rz
    limits (-90.0 90.0)
           (-45.0 45.0)
  end
  begin
     id 29
     name rfingers
     direction -1 -4.48973e-011 5.83886e-027   
     length 0.537277   
     axis -3.72598e-015 -90 -90   XYZ
    dof rx
    limits (0.0 90.0)
  end
  begin
     id 30
     name rthumb
     direction -0.707107 -6.34976e-011 0.707107   
     length 0.771425   
     axis -90 -45 6.68868e-015   XYZ
    dof rx rz
    limits (-45.0 45.0)
           (-45.0 45.0)
  end
:hierarchy
  begin
    root lhipjoint rhipjoint lowerback
    lhipjoint lfemur
    lfemur ltibia
    ltibia lfoot
    lfoot ltoes
    rhipjoint rfemur
    rfemur rtibia
    rtibia rfoot
    rfoot rtoes
    lowerback upperback
    upperback thorax
    thorax lowerneck lclavicle rclavicle
    lowerneck upperneck
    upperneck head
    lclavicle lhumerus
    lhumerus lradius
    lradius lwrist
    lwrist lhand lthumb
    lhand lfingers
    rclavicle rhumerus
    rhumerus rradius
    rradius rwrist
    rwrist rhand rthumb
    rhand rfingers
  end

#!OML:ASF H:\LiuWeirdWalks\Patient Classification 1\Patient 1\Session 1\male.ASF
:FULLY-SPECIFIED
:DEGREES
121
root -1.3874 17.5042 -30.9502 3.59064 -0.442581 -4.94129
lowerback 6.43355 -1.67936 3.88478
upperback -0.491711 -1.76748 4.13739
thorax -4.11116 -0.917138 2.28737
lowerneck -16.2047 2.48914 4.81712
upperneck 7.31493 2.83671 -4.6812
head 4.95685 1.20885 -1.99194
rclavicle 1.92821e-014 -5.48646e-014
rhumerus -35.8964 -8.12727 -76.8834
rradius 28.0663
rwrist -6.55436
rhand -15.3534 -0.99756
rfingers 7.12502
rthumb 10.8239 -30.6986
lclavicle 1.92821e-014 -5.48646e-014
lhumerus -29.153 -0.519826 88.8284
lradius 36.0991
lwrist 11.9101
lhand -10.5905 -1.11562
lfingers 7.12502
lthumb 15.4149 28.2896
rfemur -9.40453 -0.72842 27.6217
rtibia 34.0475
rfoot -22.0579 -17.5039
rtoes -1.70239
lfemur -25.9167 6.83131 -11.3892
ltibia 58.4914
lfoot -12.8592 13.0205
ltoes -16.5788
122
root -1.39318 17.5101 -30.915 3.52643 -0.434702 -4.98632
lowerback 6.53441 -1.67689 3.95199
upperback -0.442891 -1.75276 4.1821
thorax -4.11814 -0.910559 2.29727
lowerneck -16.1798 2.48 4.79133
upperneck 7.22289 2.82173 -4.62523
head 4.92204 1.20509 -1.97168
rclavicle -9.0447e-015 2.22639e-014
rhumerus -35.9607 -8.39701 -76.5467
rradius 27.6291
rwrist -6.28836
rhand -15.385 -1.05358
rfingers 7.12502
rthumb 10.7935 -30.7563
lclavicle -9.0447e-015 2.22639e-014
lhumerus -29.0443 -0.516046 88.9354
lradius 36.2636
lwrist 11.9242
lhand -10.5631 -1.00537
lfingers 7.12502
lthumb 15.4414 28.3978
rfemur -9.03439 -0.763892 27.6854
rtibia 33.7189
rfoot -21.9644 -17.4899
rtoes -1.83348
lfemur -26.6111 7.03179 -11.3208
ltibia 59.2349
lfoot -12.9933 12.4484
ltoes -16.6912
123
root -1.39815 17.5179 -30.8772 3.48921 -0.434412 -4.98997
lowerback 6.61525 -1.68478 3.96987
upperback -0.431263 -1.75482 4.23099
thorax -4.15074 -0.911558 2.3412
lowerneck -16.0495 2.46443 4.6943
upperneck 7.10114 2.81246 -4.5288
head 4.85974 1.20617 -1.92737
rclavicle -2.73329e-014 0
rhumerus -36.0641 -8.64079 -76.175
rradius 27.1511
rwrist -5.99275
rhand -15.4287 -1.12999
rfingers 7.12502
rthumb 10.7513 -30.8349
lclavicle -2.73329e-014 0
lhumerus -29.017 -0.467839 89.0456
lradius 36.4466
lwrist 11.9537
lhand -10.496 -0.884051
lfingers 7.12502
lthumb 15.506 28.5142
rfemur -8.67532 -0.766025 27.7029
rtibia 33.3704
rfoot -21.8745 -17.4905
rtoes -1.93945
lfemur -27.3023 7.23539 -11.3117
ltibia 59.8028
lfoot -13.1197 11.8099
ltoes -16.7511
124
root -1.40207 17.527 -30.8375 3.47517 -0.451385 -4.97464
lowerback 6.67246 -1.68273 3.97629
upperback -0.422095 -1.74639 4.27173
thorax -4.17256 -0.90715 2.38117
lowerneck -15.9619 2.45728 4.61756
upperneck 7.00672 2.8117 -4.45558
head 4.81392 1.2098 -1.89266
rclavicle 4.47266e-015 3.4191e-014
rhumerus -36.1452 -8.9535 -75.7743
rradius 26.6224
rwrist -5.64103
rhand -15.4698 -1.21689
rfingers 7.12502
rthumb 10.7116 -30.9238
lclavicle 4.47266e-015 3.4191e-014
lhumerus -29.0036 -0.437373 89.1577
lradius 36.6396
lwrist 12.0098
lhand -10.4429 -0.811611
lfingers 7.12502
lthumb 15.5571 28.5826
rfemur -8.32758 -0.725131 27.6979
rtibia 33.0063
rfoot -21.7831 -17.5069
rtoes -2.02645
lfemur -27.9898 7.45437 -11.3382
ltibia 60.2004
lfoot -13.2266 11.1718
ltoes -16.9186
125
root -1.40531 17.5372 -30.7963 3.49173 -0.469121 -4.95466
lowerback 6.71704 -1.67099 3.98892
upperback -0.431327 -1.72473 4.30229
thorax -4.20709 -0.896571 2.40574
lowerneck -15.8791 2.44006 4.5442
upperneck 6.92256 2.79646 -4.37896
head 4.77145 1.20655 -1.85873
rclavicle -8.05078e-015 -2.62396e-014
rhumerus -36.2399 -9.35235 -75.3378
rradius 26.0533
rwrist -5.22815
rhand -15.4982 -1.297
rfingers 7.12502
rthumb 10.6842 -31.0053
lclavicle -8.05078e-015 -2.62396e-014
lhumerus -29.0222 -0.446467 89.2688
lradius 36.8283
lwrist 12.0526
lhand -10.4019 -0.810534
lfingers 7.12502
lthumb 15.5966 28.5806
rfemur -8.0002 -0.656071 27.6893
rtibia 32.6219
rfoot -21.6799 -17.5401
rtoes -2.10164
lfemur -28.6847 7.67361 -11.3824
ltibia 60.426
lfoot -13.3304 10.5441
ltoes -17.1349
126
root -1.40767 17.5481 -30.7533 3.52892 -0.48278 -4.93781
lowerback 6.74449 -1.64802 4.02617
upperback -0.436053 -1.68814 4.31778
thorax -4.22863 -0.879189 2.39847
lowerneck -15.8626 2.42427 4.51308
upperneck 6.86042 2.77515 -4.32923
head 4.74721 1.19886 -1.84017
rclavicle -1.81888e-014 2.38542e-014
rhumerus -36.3175 -9.87523 -74.8634
rradius 25.4382
rwrist -4.72058
rhand -15.5048 -1.32859
rfingers 7.12502
rthumb 10.6778 -31.0373
lclavicle -1.81888e-014 2.38542e-014
lhumerus -29.0373 -0.50693 89.3727
lradius 37.0181
lwrist 12.0634
lhand -10.372 -0.922807
lfingers 7.12502
lthumb 15.6254 28.4661
rfemur -7.67518 -0.570747 27.6841
rtibia 32.2095
rfoot -21.5653 -17.5859
rtoes -2.17965
lfemur -29.3702 7.89568 -11.4356
ltibia 60.487
lfoot -13.4367 9.94322
ltoes -17.396
127
root -1.40843 17.5605 -30.7078 3.58552 -0.493934 -4.92205
lowerback 6.74797 -1.60938 4.10187
upperback -0.432616 -1.63066 4.30929
thorax -4.23011 -0.852387 2.34131
lowerneck -15.9478 2.40259 4.52801
upperneck 6.85982 2.73648 -4.30306
head 4.75864 1.18105 -1.83726
rclavicle 3.97569e-016 1.74931e-014
rhumerus -36.3802 -10.5546 -74.3454
rradius 24.7767
rwrist -4.10084
rhand -15.4838 -1.30272
rfingers 7.12502
rthumb 10.6981 -31.0103
lclavicle 3.97569e-016 1.74931e-014
lhumerus -29.0227 -0.670174 89.4719
lradius 37.1884
lwrist 12.1138
lhand -10.3697 -1.07766
lfingers 7.12502
lthumb 15.6276 28.3111
rfemur -7.34299 -0.499101 27.6705
rtibia 31.7602
rfoot -21.4393 -17.611
rtoes -2.26146
lfemur -30.037 8.1146 -11.5045
ltibia 60.3784
lfoot -13.5177 9.41451
ltoes -17.6845
128
root -1.40809 17.5738 -30.6612 3.65514 -0.493487 -4.93161
lowerback 6.767 -1.56762 4.22254
upperback -0.440288 -1.56363 4.29712
thorax -4.25325 -0.822064 2.25507
lowerneck -16.0668 2.3813 4.56851
upperneck 6.87952 2.69434 -4.29748
head 4.78229 1.16047 -1.84505
rclavicle 1.23246e-014 3.97569e-015
rhumerus -36.4588 -11.293 -73.8047
rradius 24.1138
rwrist -3.45594
rhand -15.4601 -1.30792
rfingers 7.12502
rthumb 10.721 -31.0144
lclavicle 1.23246e-014 3.97569e-015
lhumerus -29.0168 -0.891621 89.5657
lradius 37.3569
lwrist 12.1676
lhand -10.3464 -1.2269
lfingers 7.12502
lthumb 15.6501 28.1601
rfemur -6.99978 -0.436091 27.6809
rtibia 31.2708
rfoot -21.3048 -17.6275
rtoes -2.33443
lfemur -30.6871 8.32052 -11.5562
ltibia 60.1118
lfoot -13.5717 8.96819
ltoes -17.9425
129
root -1.40627 17.5884 -30.613 3.7369 -0.480071 -4.9379
lowerback 6.79293 -1.53234 4.35825
upperback -0.461775 -1.50275 4.28082
thorax -4.29492 -0.795431 2.1574
lowerneck -16.2069 2.36297 4.61245
upperneck 6.93264 2.6566 -4.30319
head 4.82016 1.14112 -1.85645
rclavicle -2.75317e-014 1.90833e-014
rhumerus -36.5576 -12.0641 -73.2324
rradius 23.4471
rwrist -2.75002
rhand -15.4277 -1.31079
rfingers 7.12502
rthumb 10.7522 -31.0156
lclavicle -2.75317e-014 1.90833e-014
lhumerus -29.0366 -1.13164 89.6532
lradius 37.538
lwrist 12.2476
lhand -10.2857 -1.31221
lfingers 7.12502
lthumb 15.7085 28.0702
rfemur -6.64385 -0.399447 27.6794
rtibia 30.741
rfoot -21.15 -17.6252
rtoes -2.41918
lfemur -31.3104 8.49427 -11.6225
ltibia 59.6865
lfoot -13.5919 8.62418
ltoes -18.1681
130
root -1.40347 17.603 -30.5639 3.81542 -0.4533 -4.95656
lowerback 6.84119 -1.50356 4.51213
upperback -0.488337 -1.44668 4.26901
thorax -4.35459 -0.771809 2.05562
lowerneck -16.365 2.3538 4.66311
upperneck 7.00849 2.63119 -4.32472
head 4.86889 1.1267 -1.87275
rclavicle 1.97791e-014 -4.85035e-014
rhumerus -36.6685 -12.8126 -72.663
rradius 22.8167
rwrist -2.07435
rhand -15.4067 -1.3884
rfingers 7.12502
rthumb 10.7725 -31.0922
lclavicle 1.97791e-014 -4.85035e-014
lhumerus -29.0711 -1.37936 89.7355
lradius 37.7269
lwrist 12.3193
lhand -10.2058 -1.37116
lfingers 7.12502
lthumb 15.7854 28.0052
rfemur -6.26489 -0.368418 27.6901
rtibia 30.1792
rfoot -20.9846 -17.6256
rtoes -2.50484
lfemur -31.8979 8.63472 -11.6781
ltibia 59.1173
lfoot -13.5663 8.39554
ltoes -18.3189
131
root -1.39976 17.6185 -30.5138 3.89357 -0.407326 -4.9632
lowerback 6.89399 -1.49765 4.6479
upperback -0.534018 -1.4204 4.26797
thorax -4.43588 -0.76287 1.97906
lowerneck -16.4329 2.33793 4.64184
upperneck 7.06361 2.61056 -4.30221
head 4.89538 1.11668 -1.86373
rclavicle 7.7526e-015 -2.3059e-014
rhumerus -36.8089 -13.4826 -72.0916
rradius 22.2188
rwrist -1.39508
rhand -15.3824 -1.48311
rfingers 7.12502
rthumb 10.7959 -31.1857
lclavicle 7.7526e-015 -2.3059e-014
lhumerus -29.1709 -1.56398 89.8077
lradius 37.9409
lwrist 12.3075
lhand -10.0878 -1.41884
lfingers 7.12502
lthumb 15.8991 27.9485
rfemur -5.87152 -0.341945 27.6874
rtibia 29.5951
rfoot -20.8151 -17.6358
rtoes -2.57956
lfemur -32.4476 8.72145 -11.7472
ltibia 58.4046
lfoot -13.5121 8.28342
ltoes -18.3639
